<svg xmlns="http://www.w3.org/2000/svg" x="0px" y="0px"
width="96" height="96"
viewBox="0 0 172 172"
style=" fill:#000000;"><defs><linearGradient x1="86" y1="13.88631" x2="86" y2="158.5625" gradientUnits="userSpaceOnUse" id="color-1_62398_gr1"><stop offset="0" stop-color="#ffffff"></stop><stop offset="1" stop-color="#ffffff"></stop></linearGradient><linearGradient x1="76.18794" y1="13.88631" x2="76.18794" y2="158.5625" gradientUnits="userSpaceOnUse" id="color-2_62398_gr2"><stop offset="0" stop-color="#ffffff"></stop><stop offset="1" stop-color="#ffffff"></stop></linearGradient><linearGradient x1="62.48438" y1="13.88631" x2="62.48438" y2="158.5625" gradientUnits="userSpaceOnUse" id="color-3_62398_gr3"><stop offset="0" stop-color="#ffffff"></stop><stop offset="1" stop-color="#ffffff"></stop></linearGradient><linearGradient x1="100.64688" y1="11.92175" x2="100.64688" y2="159.82294" gradientUnits="userSpaceOnUse" id="color-4_62398_gr4"><stop offset="0" stop-color="#ffffff"></stop><stop offset="1" stop-color="#ffffff"></stop></linearGradient><linearGradient x1="86" y1="13.88631" x2="86" y2="158.5625" gradientUnits="userSpaceOnUse" id="color-5_62398_gr5"><stop offset="0" stop-color="#ffffff"></stop><stop offset="1" stop-color="#ffffff"></stop></linearGradient><linearGradient x1="76.18794" y1="13.88631" x2="76.18794" y2="158.5625" gradientUnits="userSpaceOnUse" id="color-6_62398_gr6"><stop offset="0" stop-color="#ffffff"></stop><stop offset="1" stop-color="#ffffff"></stop></linearGradient><linearGradient x1="62.48438" y1="13.88631" x2="62.48438" y2="158.5625" gradientUnits="userSpaceOnUse" id="color-7_62398_gr7"><stop offset="0" stop-color="#ffffff"></stop><stop offset="1" stop-color="#ffffff"></stop></linearGradient><linearGradient x1="100.64688" y1="11.92175" x2="100.64688" y2="159.82294" gradientUnits="userSpaceOnUse" id="color-8_62398_gr8"><stop offset="0" stop-color="#ffffff"></stop><stop offset="1" stop-color="#ffffff"></stop></linearGradient></defs><g transform="translate(0.516,0.516) scale(0.994,0.994)"><g fill="none" fill-rule="nonzero" stroke="none" stroke-width="1" stroke-linecap="butt" stroke-linejoin="none" stroke-miterlimit="10" stroke-dasharray="" stroke-dashoffset="0" font-family="none" font-weight="none" font-size="none" text-anchor="none" style="mix-blend-mode: normal"><g stroke="#ffffff" stroke-linejoin="round"><path d="M75.25,158.5625c-1.08575,0 -2.0855,-0.66112 -2.49669,-1.6985c-5.34813,-13.49394 -15.30263,-38.614 -22.69863,-38.614c-3.45612,0 -6.87463,2.2145 -6.90687,2.236c-0.92988,0.6235 -2.15269,0.602 -3.06106,-0.05644l-33.59375,-24.1875c-0.79013,-0.56975 -1.21206,-1.5265 -1.09919,-2.49669c0.11288,-0.97019 0.74444,-1.80063 1.64744,-2.1715l44.25238,-18.16213c1.97531,-2.91594 9.64275,-13.60144 17.9525,-16.79687c1.25506,-0.48375 2.30319,-0.87613 3.19544,-1.20938c4.49619,-1.68506 4.49619,-1.68506 7.93619,-4.91812l0.76056,-0.71487c4.67356,-4.38062 13.59069,-18.14869 16.34806,-22.62606c0.31713,-0.51869 0.65575,-1.08844 1.01319,-1.69044c3.00194,-5.074 7.11112,-12.0185 13.36762,-12.0185c7.17563,0 10.9865,7.39331 15.22737,17.06294c3.89687,8.88756 14.30556,38.31837 18.56256,50.94694c10.23937,30.38756 20.58894,51.53281 20.69375,51.74244c0.52406,1.06694 0.28487,2.35425 -0.59125,3.16319c-0.87344,0.80894 -2.17419,0.946 -3.20081,0.33056c-0.21769,-0.129 -5.42337,-3.28413 -13.95888,-11.83038c-6.33175,-6.33712 -11.49175,-9.29069 -16.24056,-9.29069c-8.35544,0 -14.25719,6.6435 -21.73112,15.05806l-0.44612,0.50256c-0.88688,0.99706 -1.86244,2.14194 -2.92669,3.38625c-7.4175,8.68331 -18.62437,21.80906 -31.55125,24.01819c-0.15319,0.02419 -0.30638,0.03494 -0.45419,0.03494zM50.05469,112.875c9.92494,0 17.77513,17.12475 26.84275,39.86906c10.22862,-2.94281 19.79881,-14.14969 26.27031,-21.72575c1.08844,-1.27387 2.09087,-2.44831 2.99656,-3.46687l0.44612,-0.50256c8.03831,-9.04881 14.98013,-16.86138 25.74894,-16.86138c8.14312,0 14.98819,5.80769 20.04337,10.86556c1.60444,1.60712 3.08256,3.01 4.42362,4.22744c-4.04737,-9.22888 -10.18294,-24.07731 -16.26206,-42.1185c-4.39406,-13.03975 -14.71406,-42.1185 -18.39056,-50.50619c-3.93987,-8.97625 -6.74831,-13.84331 -10.30656,-13.84331c-3.19275,0 -6.66769,5.87219 -8.74512,9.38206c-0.37356,0.63156 -0.72831,1.22819 -1.06156,1.76837c-0.11019,0.18006 -11.06981,17.94175 -17.24569,23.73331l-0.75519,0.7095c-4.10381,3.85925 -4.37525,4.02856 -9.72875,6.03344c-0.87881,0.33056 -1.9135,0.71756 -3.15512,1.19594c-6.49031,2.49669 -13.631,11.96475 -15.83475,15.40206c-0.29831,0.46494 -0.731,0.82775 -1.24162,1.03737l-40.53825,16.63563l28.26981,20.35244c1.81675,-0.9245 4.90469,-2.18762 8.22375,-2.18762z" fill="url(#color-1_62398_gr1)"></path><path d="M42.80113,120.68219l-2.29244,-4.86169c0.16662,-0.07794 16.641,-8.04906 29.46038,-27.91775c12.17706,-18.87431 18.19169,-33.61256 21.42206,-41.52994c0.82237,-2.01562 1.45125,-3.5475 1.93231,-4.54187c1.1825,-2.44831 2.32469,-5.39381 3.53406,-8.514c3.78938,-9.77444 7.71044,-19.87944 15.00969,-19.87944v5.375c-3.62006,0 -7.30731,9.50569 -9.9975,16.4475c-1.24969,3.22231 -2.43219,6.26725 -3.70606,8.90906c-0.44881,0.92719 -1.02662,2.35694 -1.79525,4.23819c-3.29756,8.07862 -9.43313,23.11519 -21.88162,42.41144c-13.69819,21.22856 -30.95731,29.5195 -31.68563,29.8635z" fill="url(#color-2_62398_gr2)"></path><path d="M70.27813,91.84531l-18.8125,-14.10937l3.225,-4.3l18.8125,14.10938z" fill="url(#color-3_62398_gr3)"></path><path d="M102.14919,123.97706c-0.92988,1.04812 -1.9565,2.24675 -3.06912,3.55019c-4.95844,5.805 -12.0185,14.07444 -19.23712,18.14062c-3.4185,-8.39037 -6.74025,-15.91806 -10.23669,-22.04287c0,0 3.3325,-0.97019 5.64375,-2.01562c5.04981,-2.28169 10.86019,-7.1595 14.10938,-15.45312c8.50594,-21.70963 19.06244,-66.65806 21.29575,-78.72762c0.41656,-2.26019 0.94331,-3.24112 1.38675,-3.24112c0.65306,0 1.27925,1.03737 2.84875,7.72656c7.72656,32.92188 16.79688,72.9065 16.79688,72.9065c-12.78981,0.30369 -20.71525,9.2235 -29.09756,18.65931z" fill="url(#color-4_62398_gr4)"></path></g><path d="M0,172v-172h172v172z" fill="none" stroke="none" stroke-linejoin="miter"></path><path d="" fill="none" stroke="none" stroke-linejoin="miter"></path><path d="" fill="none" stroke="none" stroke-linejoin="miter"></path><g stroke="none" stroke-linejoin="miter"><path d="M75.25,158.5625c-1.08575,0 -2.0855,-0.66112 -2.49669,-1.6985c-5.34813,-13.49394 -15.30263,-38.614 -22.69863,-38.614c-3.45612,0 -6.87463,2.2145 -6.90687,2.236c-0.92988,0.6235 -2.15269,0.602 -3.06106,-0.05644l-33.59375,-24.1875c-0.79013,-0.56975 -1.21206,-1.5265 -1.09919,-2.49669c0.11288,-0.97019 0.74444,-1.80063 1.64744,-2.1715l44.25238,-18.16213c1.97531,-2.91594 9.64275,-13.60144 17.9525,-16.79687c1.25506,-0.48375 2.30319,-0.87613 3.19544,-1.20938c4.49619,-1.68506 4.49619,-1.68506 7.93619,-4.91812l0.76056,-0.71487c4.67356,-4.38062 13.59069,-18.14869 16.34806,-22.62606c0.31713,-0.51869 0.65575,-1.08844 1.01319,-1.69044c3.00194,-5.074 7.11112,-12.0185 13.36762,-12.0185c7.17563,0 10.9865,7.39331 15.22737,17.06294c3.89687,8.88756 14.30556,38.31837 18.56256,50.94694c10.23937,30.38756 20.58894,51.53281 20.69375,51.74244c0.52406,1.06694 0.28487,2.35425 -0.59125,3.16319c-0.87344,0.80894 -2.17419,0.946 -3.20081,0.33056c-0.21769,-0.129 -5.42337,-3.28413 -13.95888,-11.83038c-6.33175,-6.33712 -11.49175,-9.29069 -16.24056,-9.29069c-8.35544,0 -14.25719,6.6435 -21.73112,15.05806l-0.44612,0.50256c-0.88688,0.99706 -1.86244,2.14194 -2.92669,3.38625c-7.4175,8.68331 -18.62437,21.80906 -31.55125,24.01819c-0.15319,0.02419 -0.30638,0.03494 -0.45419,0.03494zM50.05469,112.875c9.92494,0 17.77513,17.12475 26.84275,39.86906c10.22862,-2.94281 19.79881,-14.14969 26.27031,-21.72575c1.08844,-1.27387 2.09087,-2.44831 2.99656,-3.46687l0.44612,-0.50256c8.03831,-9.04881 14.98013,-16.86138 25.74894,-16.86138c8.14312,0 14.98819,5.80769 20.04337,10.86556c1.60444,1.60712 3.08256,3.01 4.42362,4.22744c-4.04737,-9.22888 -10.18294,-24.07731 -16.26206,-42.1185c-4.39406,-13.03975 -14.71406,-42.1185 -18.39056,-50.50619c-3.93987,-8.97625 -6.74831,-13.84331 -10.30656,-13.84331c-3.19275,0 -6.66769,5.87219 -8.74512,9.38206c-0.37356,0.63156 -0.72831,1.22819 -1.06156,1.76837c-0.11019,0.18006 -11.06981,17.94175 -17.24569,23.73331l-0.75519,0.7095c-4.10381,3.85925 -4.37525,4.02856 -9.72875,6.03344c-0.87881,0.33056 -1.9135,0.71756 -3.15512,1.19594c-6.49031,2.49669 -13.631,11.96475 -15.83475,15.40206c-0.29831,0.46494 -0.731,0.82775 -1.24162,1.03737l-40.53825,16.63563l28.26981,20.35244c1.81675,-0.9245 4.90469,-2.18762 8.22375,-2.18762z" fill="url(#color-5_62398_gr5)"></path><path d="M42.80113,120.68219l-2.29244,-4.86169c0.16662,-0.07794 16.641,-8.04906 29.46038,-27.91775c12.17706,-18.87431 18.19169,-33.61256 21.42206,-41.52994c0.82237,-2.01562 1.45125,-3.5475 1.93231,-4.54187c1.1825,-2.44831 2.32469,-5.39381 3.53406,-8.514c3.78938,-9.77444 7.71044,-19.87944 15.00969,-19.87944v5.375c-3.62006,0 -7.30731,9.50569 -9.9975,16.4475c-1.24969,3.22231 -2.43219,6.26725 -3.70606,8.90906c-0.44881,0.92719 -1.02662,2.35694 -1.79525,4.23819c-3.29756,8.07862 -9.43313,23.11519 -21.88162,42.41144c-13.69819,21.22856 -30.95731,29.5195 -31.68563,29.8635z" fill="url(#color-6_62398_gr6)"></path><path d="M70.27813,91.84531l-18.8125,-14.10937l3.225,-4.3l18.8125,14.10938z" fill="url(#color-7_62398_gr7)"></path><path d="M102.58994,123.47988c8.38231,-9.43581 16.30775,-18.35562 29.09756,-18.65931c0,0 -9.07031,-39.98462 -16.79687,-72.9065c-1.5695,-6.68919 -2.19569,-7.72656 -2.84875,-7.72656c-0.44344,0 -0.97019,0.98094 -1.38675,3.24113c-2.23331,12.06956 -12.78981,57.018 -21.29575,78.72763c-3.24919,8.29362 -9.05956,13.17144 -14.10937,15.45313c-2.31125,1.04544 -5.64375,2.01563 -5.64375,2.01563c3.49644,6.12481 6.81819,13.6525 10.23669,22.04287c7.21862,-4.06619 14.27869,-12.33562 19.23712,-18.14062c1.11262,-1.30344 2.13925,-2.50206 3.06912,-3.55019z" fill="url(#color-8_62398_gr8)"></path></g><path d="" fill="none" stroke="none" stroke-linejoin="miter"></path><path d="" fill="none" stroke="none" stroke-linejoin="miter"></path></g></g></svg>